<?xml version="1.0" standalone="no"?>
<!DOCTYPE svg PUBLIC "-//W3C//DTD SVG 20010904//EN"
 "http://www.w3.org/TR/2001/REC-SVG-20010904/DTD/svg10.dtd">
<svg version="1.0" xmlns="http://www.w3.org/2000/svg"
 width="1919.000000pt" height="1079.000000pt" viewBox="0 0 1919.000000 1079.000000"
 preserveAspectRatio="xMidYMid meet">
<metadata>
Created by potrace 1.16, written by Peter Selinger 2001-2019
</metadata>
<g transform="translate(0.000000,1079.000000) scale(0.100000,-0.100000)"
fill="#000000" stroke="none">
<path d="M0 5395 l0 -5395 9595 0 9595 0 0 5395 0 5395 -9595 0 -9595 0 0
-5395z m447 5025 l35 -31 34 31 c19 16 38 30 43 30 4 0 18 -11 31 -25 20 -21
22 -30 14 -52 -5 -14 -16 -31 -25 -36 -17 -10 -24 -7 -85 38 -9 7 -19 7 -28 0
-70 -51 -65 -50 -91 -25 -30 28 -32 53 -5 80 27 27 36 25 77 -10z m5200 -1069
c2 -10 15 -23 28 -29 80 -37 208 -287 348 -682 31 -85 58 -162 62 -172 3 -9
15 -18 26 -21 25 -7 25 -43 0 -57 -34 -18 -54 -2 -47 39 4 25 -1 56 -17 99
l-22 62 -735 0 -735 0 -50 -72 c-101 -145 -197 -258 -246 -288 -27 -16 -49
-34 -49 -39 0 -5 -9 -13 -20 -16 -33 -10 -132 96 -245 263 l-100 147 -225 3
-225 3 -66 -33 c-36 -18 -70 -42 -75 -53 -7 -15 -19 -20 -54 -21 -25 0 -64
-10 -86 -22 -74 -38 -243 -102 -286 -108 -24 -4 -51 -15 -61 -25 -22 -24 -32
-24 -56 0 -10 10 -34 22 -52 26 -19 4 -68 23 -109 42 -123 58 -212 93 -232 93
-10 0 -27 -5 -38 -12 -15 -10 -24 -9 -45 2 -22 12 -30 11 -58 -2 -37 -18 -127
-90 -231 -185 -38 -35 -82 -71 -98 -81 -15 -9 -28 -22 -28 -28 0 -24 -30 -43
-58 -38 -16 3 -47 -3 -76 -16 -62 -26 -181 -57 -270 -69 -37 -5 -76 -17 -85
-25 -22 -20 -47 -20 -58 -2 -6 11 -55 17 -203 26 -107 7 -197 14 -199 16 -2 2
-12 -3 -22 -12 -27 -24 -61 -9 -57 24 4 32 32 41 57 18 33 -30 390 -49 431
-24 15 10 24 9 44 -1 18 -10 44 -12 90 -7 109 11 343 86 331 106 -10 17 26 39
53 34 30 -5 47 7 223 164 52 46 117 94 146 108 29 14 57 32 64 40 14 18 45 18
56 1 4 -7 28 -19 53 -26 25 -7 98 -37 162 -66 150 -69 193 -81 214 -60 19 19
29 19 48 0 8 -8 21 -15 30 -15 60 0 379 134 392 165 7 15 19 20 49 20 30 1 76
19 185 77 80 42 166 82 192 88 26 7 53 18 59 26 6 8 18 14 25 14 32 0 132
-114 244 -280 65 -96 134 -190 154 -209 32 -31 38 -33 62 -22 22 10 30 9 43
-3 15 -14 21 -13 56 8 44 27 93 84 242 286 55 74 107 141 116 148 9 8 13 20
10 28 -7 20 15 44 41 44 12 0 58 28 101 61 44 34 136 99 205 144 72 48 129 93
135 106 7 17 18 24 38 24 19 1 63 28 139 84 131 100 209 148 259 161 20 6 42
17 49 25 17 21 51 19 57 -4z m12581 -293 l-3 -223 -167 0 -168 0 0 222 0 223
170 0 170 0 -2 -222z m-6861 167 c3 -9 22 -24 42 -34 75 -39 160 -150 280
-366 35 -63 70 -112 83 -119 32 -16 32 -60 -1 -64 -29 -4 -43 15 -36 47 7 28
-116 251 -201 363 -76 102 -150 158 -169 128 -9 -15 -41 -12 -54 4 -18 21 -78
3 -225 -67 -95 -45 -131 -68 -137 -85 -8 -20 -14 -23 -42 -19 -57 9 -363 -131
-382 -174 -7 -18 -18 -24 -42 -25 -33 -1 -38 -4 -194 -142 -52 -45 -114 -92
-139 -104 -25 -12 -49 -28 -53 -35 -11 -18 -56 -16 -64 2 -3 9 -19 23 -36 32
-17 8 -86 69 -153 133 -123 118 -156 142 -177 121 -16 -16 -47 -13 -53 4 -9
21 -49 13 -214 -42 -99 -34 -141 -53 -156 -72 -19 -23 -24 -24 -45 -13 -21 11
-41 8 -144 -21 -66 -19 -143 -38 -172 -42 -29 -4 -57 -13 -64 -21 -15 -18 -48
-18 -55 0 -3 8 -22 17 -42 20 -20 4 -81 20 -135 37 -136 41 -185 50 -191 33
-6 -16 -56 -19 -56 -4 0 21 -51 9 -122 -29 -136 -72 -230 -130 -245 -150 -14
-21 -47 -28 -57 -12 -4 5 -38 1 -78 -10 -40 -10 -120 -24 -178 -31 -65 -7
-108 -17 -113 -25 -10 -17 -53 -17 -60 0 -4 11 -48 16 -181 21 -152 6 -179 4
-192 -9 -12 -11 -20 -12 -35 -5 -25 14 -25 46 1 60 15 8 23 6 37 -9 16 -18 38
-21 186 -27 152 -6 169 -5 187 11 19 17 30 16 62 -7 14 -10 41 -9 135 5 143
20 223 43 223 62 0 18 39 30 52 17 11 -11 46 6 243 114 44 24 87 43 96 44 9 0
24 9 34 20 22 24 33 25 55 5 9 -8 56 -25 106 -39 49 -13 126 -34 171 -46 76
-21 83 -22 98 -6 21 21 41 20 53 -1 9 -15 17 -16 73 -5 34 6 113 26 176 43 83
24 114 37 118 51 7 19 49 25 60 9 3 -6 66 11 143 38 75 27 156 52 179 56 23 3
44 13 47 21 8 20 44 17 56 -5 5 -11 20 -23 32 -27 12 -3 76 -58 142 -122 67
-63 134 -123 150 -133 26 -16 31 -16 53 -2 21 14 25 14 42 -1 18 -16 21 -16
60 3 22 12 73 49 112 84 39 34 99 85 133 114 33 28 63 62 67 75 4 18 12 23 40
23 20 0 75 20 139 51 58 28 135 63 173 79 37 15 67 34 67 40 0 24 30 40 50 27
16 -10 39 -2 139 48 66 32 146 67 178 76 32 9 62 23 66 30 11 19 46 18 54 -1z
m6422 -217 c-1 -90 -4 -184 -7 -210 l-4 -48 -169 0 -169 0 0 210 0 210 175 0
176 0 -2 -162z m-1341 -165 l-3 -188 -167 0 -168 0 0 187 0 188 170 0 170 0
-2 -187z m892 -1 l0 -187 -167 0 -168 0 -3 188 -2 187 170 0 170 0 0 -188z
m-2220 -72 l0 -180 -170 0 -170 0 0 180 0 180 170 0 170 0 0 -180z m888 3 l-3
-178 -167 0 -168 0 0 177 0 178 170 0 170 0 -2 -177z m2662 -33 l0 -170 -170
0 -170 0 0 170 0 170 170 0 170 0 0 -170z m-3100 11 c0 -76 -3 -153 -6 -170
l-6 -31 -169 0 -169 0 0 170 0 170 175 0 175 0 0 -139z m1330 -81 l0 -160
-170 0 -170 0 0 33 c0 17 -3 89 -7 160 l-6 127 177 0 176 0 0 -160z m-2220
-10 l0 -160 -170 0 -170 0 0 73 c0 39 -3 111 -7 160 l-6 87 177 0 176 0 0
-160z m-890 -35 l0 -155 -170 0 -170 0 0 155 0 155 170 0 170 0 0 -155z m446
84 c-3 -34 -6 -102 -6 -150 l0 -89 -170 0 -170 0 0 150 0 150 176 0 177 0 -7
-61z m-9542 -347 c8 -16 22 -34 31 -42 30 -25 83 -135 160 -330 100 -255 131
-325 170 -385 31 -49 33 -51 78 -50 29 1 53 8 66 19 29 27 90 149 170 344 88
213 132 302 175 350 18 20 36 45 39 55 8 21 55 23 63 2 4 -8 12 -15 19 -15 7
0 45 -17 86 -37 58 -29 100 -62 200 -160 69 -68 133 -123 141 -123 37 0 51
-52 18 -70 -19 -10 -20 -21 -20 -200 l0 -190 -457 -1 c-252 0 -452 -3 -445 -6
16 -6 -31 -33 -58 -33 -20 0 -43 23 -33 33 3 4 -394 7 -883 6 -505 0 -880 -4
-869 -9 20 -8 20 -9 -1 -9 -23 -1 -87 -82 -89 -114 -2 -22 -23 -38 -45 -34 -8
2 -48 -19 -88 -46 -99 -65 -197 -111 -273 -127 -35 -7 -71 -19 -80 -26 -20
-18 -38 -18 -58 -1 -9 8 -45 21 -79 31 -75 20 -133 48 -257 124 -62 39 -98 55
-117 53 -23 -2 -28 2 -34 26 -8 33 -93 125 -107 116 -6 -3 -7 -1 -3 5 5 9 -68
12 -289 12 -195 0 -294 -3 -290 -10 3 -5 2 -10 -3 -10 -6 0 -32 -35 -58 -77
-44 -71 -154 -193 -174 -193 -5 0 -16 7 -25 16 -9 9 -39 28 -66 42 -50 24
-141 106 -211 190 -35 41 -37 42 -100 42 l-65 0 -7 61 c-3 34 -6 76 -6 94 0
18 -7 38 -15 45 -21 17 -19 47 4 60 25 13 55 -14 47 -43 -10 -40 203 -323 297
-396 70 -53 104 -66 124 -45 9 8 22 13 29 10 8 -3 21 -9 29 -12 10 -4 27 7 48
29 30 34 55 73 207 323 58 95 167 224 190 224 5 0 17 -8 27 -19 10 -10 33 -26
52 -36 40 -20 106 -86 204 -205 118 -143 165 -188 192 -182 16 3 27 -2 34 -16
6 -11 8 -22 5 -25 -7 -6 116 -87 211 -138 39 -21 97 -45 129 -53 53 -14 61
-14 76 -1 21 19 49 19 56 0 5 -12 15 -14 43 -9 50 8 129 33 176 56 76 37 195
122 195 140 0 24 29 50 49 43 21 -6 56 40 181 240 113 181 158 243 202 278 18
15 42 36 53 47 26 25 42 25 69 0 12 -11 41 -37 65 -58 24 -20 88 -91 141 -157
53 -66 118 -139 144 -163 43 -40 48 -42 68 -28 16 12 26 12 42 4 40 -21 94 69
206 342 93 227 141 326 182 375 19 22 37 48 41 58 10 28 54 22 71 -11z m-253
-3180 c55 -108 90 -188 114 -262 15 -47 32 -87 37 -88 4 -2 6 -7 4 -11 -11
-18 132 -471 177 -561 l32 -65 45 0 45 0 41 82 c22 45 66 167 98 270 87 287
95 310 133 413 63 169 138 270 159 216 3 -8 33 -19 69 -26 38 -7 113 -36 187
-72 71 -35 138 -61 158 -62 30 -1 35 -5 35 -25 0 -32 -28 -49 -49 -32 -9 8
-16 21 -16 30 0 23 -210 125 -303 147 -64 16 -68 16 -80 0 -8 -11 -23 -16 -42
-14 -27 3 -33 -2 -62 -57 -41 -77 -127 -340 -117 -357 4 -7 3 -9 -1 -5 -5 4
-26 -48 -46 -115 -47 -155 -96 -293 -120 -338 -71 -133 -92 -146 -128 -83 -57
101 -94 194 -146 363 -107 354 -165 525 -195 578 -27 47 -33 51 -51 41 -15 -7
-24 -7 -34 1 -32 26 -97 -139 -190 -480 -73 -267 -140 -468 -175 -523 -15 -24
-31 -54 -35 -66 -9 -30 -44 -24 -64 10 -9 14 -24 38 -35 52 -32 46 -91 194
-166 419 -40 120 -76 216 -80 213 -4 -2 -18 8 -31 23 l-24 27 28 -24 c39 -35
35 -11 -15 89 -41 82 -44 85 -75 82 -17 -2 -34 2 -38 7 -3 6 -15 11 -27 11
-18 0 -19 -2 -7 -17 13 -15 12 -15 -8 -2 -20 12 -28 11 -66 -8 -24 -12 -99
-65 -165 -118 -93 -74 -122 -103 -124 -123 -2 -22 -8 -27 -30 -27 -31 -1 -47
-18 -173 -185 -108 -143 -149 -190 -198 -223 -23 -16 -46 -35 -50 -43 -17 -30
-42 -14 -150 91 -29 28 -92 104 -141 170 -106 143 -154 195 -172 188 -19 -7
-44 15 -44 37 0 33 -214 158 -317 185 -52 14 -58 13 -75 -2 -16 -14 -22 -14
-43 -3 -33 17 -51 9 -149 -71 -143 -117 -198 -158 -219 -165 -11 -4 -28 -15
-37 -26 -14 -18 -50 -17 -50 2 0 5 -24 21 -53 38 -85 48 -164 140 -277 321
-47 76 -81 120 -92 120 -26 1 -40 34 -24 56 20 28 51 15 52 -22 0 -32 94 -197
139 -247 11 -12 27 -35 35 -51 40 -77 206 -212 218 -177 5 15 44 16 59 1 18
-18 67 13 196 120 65 54 132 105 150 112 18 7 38 21 45 31 16 22 35 23 53 2 7
-8 21 -13 31 -11 10 3 18 1 18 -4 0 -5 7 -9 15 -9 31 0 135 -49 230 -109 60
-38 108 -61 126 -61 23 0 30 -5 35 -27 4 -16 17 -39 29 -53 12 -14 70 -88 128
-165 165 -218 197 -248 236 -223 17 10 25 10 41 0 42 -26 106 34 265 248 43
58 92 120 108 137 17 18 28 36 24 39 -13 14 14 45 37 42 16 -2 47 17 102 63
154 126 236 179 279 179 9 0 25 10 34 22 20 24 48 20 58 -9 3 -10 14 -27 24
-38 34 -38 97 -190 179 -435 45 -135 101 -283 123 -330 l42 -85 44 -1 c38 0
46 3 62 30 36 58 78 182 163 482 94 331 116 396 171 502 43 81 70 94 96 44z
m4400 -32 c21 -12 25 -40 7 -58 -8 -8 -8 -12 -1 -12 17 0 24 -29 13 -51 -19
-35 -120 -18 -120 21 0 5 7 15 15 24 9 9 11 17 5 21 -16 10 -12 43 8 54 22 13
48 14 73 1z m-1271 -97 c-1 -33 -32 -129 -53 -166 -33 -55 -102 -117 -165
-148 -39 -19 -64 -23 -142 -24 -88 0 -101 3 -162 33 -59 29 -128 89 -128 111
0 4 33 30 73 58 l72 50 39 -28 c48 -35 96 -45 147 -30 54 16 95 54 115 106
l17 45 93 0 c52 0 94 -3 94 -7z m8386 -1724 c24 -6 44 -16 44 -23 -1 -6 -13
-40 -29 -76 l-27 -64 -66 -1 c-53 0 -72 -5 -105 -27 -108 -71 -107 -221 1
-296 32 -22 50 -27 97 -27 80 1 136 39 164 113 l20 52 84 0 84 0 -7 -42 c-10
-68 -62 -162 -112 -207 -75 -66 -125 -85 -229 -85 -77 -1 -98 3 -146 25 -79
37 -133 90 -171 167 -29 59 -33 76 -33 152 0 71 4 94 26 140 75 159 240 240
405 199z m2299 0 c52 -14 125 -50 125 -62 0 -5 -23 -37 -50 -72 l-50 -63 -37
19 c-110 56 -252 -34 -253 -160 0 -80 72 -164 151 -177 83 -14 176 45 200 126
l12 40 85 0 85 0 -7 -42 c-17 -108 -87 -204 -188 -259 -58 -32 -70 -34 -153
-34 -76 0 -99 4 -146 26 -201 94 -269 333 -147 515 81 120 237 180 373 143z
m-7262 -176 c-794 -2 -2092 -2 -2885 0 -794 1 -145 2 1442 2 1587 0 2236 -1
1443 -2z m2913 -215 c-18 -110 -92 -210 -194 -260 -60 -30 -76 -33 -152 -33
-76 0 -93 4 -152 33 -40 19 -82 50 -104 75 -34 40 -84 129 -84 153 0 9 159 51
163 42 41 -85 84 -124 148 -134 83 -14 176 45 200 126 l12 40 85 0 85 0 -7
-42z m-2913 -145 c-794 -2 -2092 -2 -2885 0 -794 1 -145 2 1442 2 1587 0 2236
-1 1443 -2z m0 -350 c-794 -2 -2092 -2 -2885 0 -794 1 -145 2 1442 2 1587 0
2236 -1 1443 -2z m-6260 -240 c-793 -2 -2093 -2 -2890 0 -796 1 -147 2 1442 2
1590 0 2241 -1 1448 -2z m6260 -110 c-794 -2 -2092 -2 -2885 0 -794 1 -145 2
1442 2 1587 0 2236 -1 1443 -2z m-6260 -250 c-793 -2 -2093 -2 -2890 0 -796 1
-147 2 1442 2 1590 0 2241 -1 1448 -2z m6260 -100 c-794 -2 -2092 -2 -2885 0
-794 1 -145 2 1442 2 1587 0 2236 -1 1443 -2z m-6260 -250 c-793 -2 -2093 -2
-2890 0 -796 1 -147 2 1442 2 1590 0 2241 -1 1448 -2z m6260 -100 c-794 -2
-2092 -2 -2885 0 -794 1 -145 2 1442 2 1587 0 2236 -1 1443 -2z m4442 -98 c14
-13 25 -36 25 -50 0 -14 -11 -37 -25 -50 l-24 -25 -1096 0 -1096 0 -24 25
c-14 13 -25 36 -25 50 0 14 11 37 25 50 l24 25 1096 0 1096 0 24 -25z m-10702
-152 c-793 -2 -2093 -2 -2890 0 -796 1 -147 2 1442 2 1590 0 2241 -1 1448 -2z
m6260 -100 c-794 -2 -2092 -2 -2885 0 -794 1 -145 2 1442 2 1587 0 2236 -1
1443 -2z m-6260 -250 c-793 -2 -2093 -2 -2890 0 -796 1 -147 2 1442 2 1590 0
2241 -1 1448 -2z m6260 -100 c-794 -2 -2092 -2 -2885 0 -794 1 -145 2 1442 2
1587 0 2236 -1 1443 -2z m-6260 -250 c-793 -2 -2093 -2 -2890 0 -796 1 -147 2
1442 2 1590 0 2241 -1 1448 -2z m6260 -100 c-794 -2 -2092 -2 -2885 0 -794 1
-145 2 1442 2 1587 0 2236 -1 1443 -2z"/>
</g>
</svg>
