<?xml version="1.0" standalone="no"?>
<!DOCTYPE svg PUBLIC "-//W3C//DTD SVG 20010904//EN"
 "http://www.w3.org/TR/2001/REC-SVG-20010904/DTD/svg10.dtd">
<svg version="1.0" xmlns="http://www.w3.org/2000/svg"
 width="1024.000000pt" height="1024.000000pt" viewBox="0 0 1024.000000 1024.000000"
 preserveAspectRatio="xMidYMid meet">
 <rect x="14.8994" y="0.136963" width="449.906" height="319.73" rx="10" transform="rotate(2.63 14.8994 0.136963)" fill="url(#pattern0_3208_786)"/>
<metadata>
Created by potrace 1.16, written by Peter Selinger 2001-2019
</metadata>
<g transform="translate(0.000000,1024.000000) scale(0.100000,-0.100000)"
fill="#000000" stroke="none">
<path d="M0 5120 l0 -5120 1046 0 c833 0 1044 3 1038 12 -6 11 -4 11 7 0 10
-9 79 -12 272 -12 242 0 259 1 253 18 -6 16 -5 16 8 0 11 -16 31 -18 143 -18
87 0 133 4 141 12 9 9 12 9 12 0 0 -9 162 -12 701 -12 557 0 699 3 693 13 -6
9 -4 9 7 0 10 -10 617 -13 2966 -13 l2953 0 0 1120 c0 665 -4 1120 -9 1120 -5
0 -74 -27 -153 -61 -78 -34 -201 -83 -273 -110 -71 -28 -173 -67 -225 -89 -52
-22 -149 -60 -215 -85 -156 -60 -424 -174 -453 -193 -16 -10 -36 -13 -70 -8
-40 5 -59 1 -127 -30 -44 -19 -192 -80 -329 -135 -297 -120 -411 -171 -422
-192 -9 -14 -82 -45 -329 -141 -61 -24 -160 -64 -220 -89 -61 -25 -189 -77
-285 -115 -96 -39 -211 -86 -256 -105 -189 -81 -595 -239 -601 -234 -3 3 109
48 242 97 23 9 26 13 15 20 -8 5 -11 12 -7 17 5 4 12 2 16 -5 9 -15 61 -6 61
9 0 5 -12 6 -26 3 -17 -4 -29 -2 -36 7 -7 11 -11 11 -15 1 -6 -15 -43 -16 -43
-1 0 20 -59 69 -90 76 -21 4 -30 11 -30 24 0 13 -7 19 -25 19 -13 0 -41 11
-61 25 -20 14 -50 25 -65 25 -16 0 -29 5 -29 10 0 6 10 10 23 10 20 1 20 2 4
11 -10 6 -28 9 -40 7 -12 -1 -28 2 -36 6 -11 7 -13 5 -8 -7 3 -10 2 -17 -2
-17 -5 0 -17 -3 -26 -6 -9 -4 -15 -3 -14 2 2 16 -13 54 -22 54 -5 0 -9 8 -9
18 -1 15 -2 15 -16 -3 -12 -16 -16 -17 -23 -6 -5 8 -7 21 -5 30 3 9 -1 5 -8
-9 -18 -37 -18 -37 -37 -11 -12 15 -29 24 -50 25 -17 0 -31 6 -31 11 0 6 -5
17 -10 25 -8 13 -11 12 -24 -5 -13 -18 -17 -19 -48 -6 -18 7 -43 14 -55 13
-16 0 -23 6 -23 20 0 17 -5 20 -30 15 -28 -6 -30 -4 -30 23 0 33 -15 47 -35
30 -18 -15 -31 6 -15 25 10 12 7 17 -16 26 -16 7 -54 16 -84 20 -132 19 -185
30 -188 39 -2 6 -12 10 -23 10 -10 0 -19 7 -19 15 0 11 -7 14 -25 9 -20 -5
-26 -1 -34 19 -14 35 -31 43 -38 18 -6 -24 -33 -29 -33 -6 0 15 -91 62 -155
82 -24 7 -29 14 -27 33 1 13 0 31 -3 39 -5 11 -8 11 -21 -5 -14 -18 -15 -17
-10 15 5 27 3 32 -9 27 -8 -3 -15 0 -15 6 0 7 -5 6 -15 -2 -13 -11 -19 -8 -40
14 -13 14 -29 26 -35 26 -11 0 -18 5 -71 53 -36 31 -46 33 -85 12 -16 -8 -36
-15 -44 -14 -8 0 -3 5 12 11 35 12 36 28 4 28 -37 0 -76 18 -76 35 0 8 -9 15
-20 15 -17 0 -20 7 -20 39 0 41 -16 56 -41 40 -8 -5 -23 -9 -33 -9 -19 0 -19
0 0 19 10 10 22 17 26 14 6 -3 44 12 57 23 2 2 -11 27 -29 56 -22 35 -26 47
-13 35 11 -10 29 -33 39 -52 18 -35 42 -49 30 -20 -3 9 -48 71 -99 138 -51 67
-118 163 -147 212 -29 50 -82 126 -117 170 -91 115 -218 288 -276 375 -28 41
-94 131 -147 200 -116 150 -220 305 -220 330 0 16 323 142 975 380 209 76 241
89 228 89 -6 1 -55 -15 -110 -34 -211 -77 -268 -95 -278 -92 -5 2 37 20 95 40
180 61 302 105 308 111 3 3 -2 6 -11 6 -23 0 -21 13 5 36 12 10 18 13 14 7 -4
-7 -2 -21 4 -30 10 -16 10 -16 6 2 -7 24 8 50 22 41 5 -3 12 1 16 9 3 8 12 12
20 9 7 -3 20 3 27 13 14 19 44 36 65 38 15 1 44 31 45 47 0 7 4 4 9 -7 7 -17
11 -13 10 10 -1 9 24 31 43 38 9 3 17 14 18 24 0 17 1 17 8 0 6 -17 10 -16 39
11 18 17 32 26 32 20 0 -5 11 4 25 19 20 22 24 24 19 8 -5 -18 -4 -18 6 -2 6
9 18 17 26 17 8 0 12 5 9 10 -4 6 7 13 25 16 17 4 35 15 41 25 6 11 26 21 50
25 23 4 52 17 66 30 13 12 31 20 39 17 10 -4 12 0 7 13 -5 13 -3 16 9 11 9 -3
24 0 34 7 11 7 31 16 47 20 15 3 27 11 27 16 0 6 9 10 20 10 24 0 61 20 73 38
4 6 19 12 32 12 15 0 25 6 25 14 0 12 39 26 80 30 8 0 14 7 12 14 -1 8 2 11 9
6 7 -4 18 1 26 11 9 14 13 15 13 4 0 -9 3 -10 8 -3 4 5 31 21 59 35 29 13 53
30 53 37 0 7 6 12 13 10 6 -1 26 6 44 15 18 9 37 17 43 17 6 0 18 7 26 15 9 8
27 18 42 21 15 4 36 15 47 24 11 10 36 21 55 25 42 8 150 56 150 66 0 4 15 10
33 13 34 6 129 52 202 97 62 38 171 79 211 79 18 0 106 47 96 53 -4 2 -2 2 5
1 22 -5 119 32 103 39 -8 4 -3 5 13 2 19 -4 29 -1 33 9 3 8 12 12 21 9 8 -3
18 -2 22 3 9 14 113 54 122 48 5 -3 9 0 9 6 0 7 7 10 15 6 8 -3 15 -1 15 4 0
5 28 18 63 29 83 26 157 52 184 64 11 5 27 6 34 2 7 -5 10 -4 6 2 -6 10 273
111 326 118 62 8 93 18 115 38 13 12 22 15 22 8 0 -7 5 -9 10 -6 6 4 8 10 6
14 -3 4 29 13 69 20 41 7 77 17 80 22 4 5 11 7 16 3 14 -8 80 16 74 27 -13 20
6 7 40 -28 24 -25 33 -30 26 -16 -9 18 -9 22 2 17 7 -2 40 9 72 26 59 31 108
70 220 174 67 63 95 72 157 55 35 -10 68 -37 178 -148 74 -75 138 -135 142
-133 4 1 5 -4 2 -11 -2 -7 66 -89 152 -182 207 -224 474 -521 604 -670 130
-149 176 -200 267 -295 l73 -75 0 389 0 389 -62 66 c-35 36 -88 100 -119 141
-31 41 -85 107 -120 145 -35 39 -91 101 -124 140 -95 110 -304 317 -315 310
-6 -3 -10 5 -10 19 0 14 3 26 6 26 3 0 32 -18 64 -41 72 -50 187 -174 505
-543 191 -221 174 -204 175 -181 0 12 -5 26 -12 33 -9 9 -9 12 0 12 9 0 12
170 12 715 0 594 -3 715 -14 715 -18 0 -385 -119 -417 -136 -20 -10 -29 -10
-38 -1 -28 28 -34 26 338 159 121 43 151 61 114 71 -17 4 -17 5 0 6 15 1 17
11 16 74 -1 41 -6 75 -13 79 -8 6 -7 8 2 8 8 0 12 18 12 55 0 37 -4 55 -12 55
-10 0 -10 2 -2 8 15 9 18 256 4 247 -6 -3 -10 4 -11 17 -1 23 -1 23 -8 -2 -14
-50 -21 0 -17 117 3 65 10 258 15 429 6 171 15 342 21 380 10 72 12 180 3 154
-15 -42 -70 -114 -107 -139 -42 -29 -155 -75 -163 -67 -6 6 41 30 88 45 90 29
165 135 162 229 -3 73 -32 128 -103 196 -33 32 -60 62 -60 67 0 16 26 10 45
-11 20 -22 40 -26 50 -10 3 6 -1 7 -9 4 -9 -3 -22 1 -31 9 -11 12 -12 17 -2
20 6 2 8 8 4 13 -4 5 -11 3 -15 -3 -4 -7 -13 -9 -19 -5 -11 7 -5 95 11 177 3
11 5 30 5 43 1 14 5 21 12 16 6 -4 9 -19 5 -36 -3 -16 -2 -27 3 -24 5 3 7 -17
6 -44 -3 -56 9 -64 39 -25 10 13 22 22 27 20 4 -3 10 -1 14 5 4 6 -4 10 -19
10 -19 0 -26 6 -31 33 -4 17 -12 38 -18 46 -9 10 -7 17 8 27 11 9 14 14 6 14
-10 0 -11 3 -2 13 8 10 7 14 -5 14 -10 0 -14 -7 -11 -19 3 -10 1 -18 -3 -18
-19 0 -20 44 -6 152 9 62 17 131 19 153 2 22 4 2 5 -45 l2 -85 35 -22 c70 -46
65 -93 65 627 l0 650 -5120 0 -5120 0 0 -5120z m9863 3993 c43 16 59 18 53 8
-4 -6 -16 -11 -27 -11 -10 0 -19 -7 -19 -15 0 -11 8 -13 30 -9 34 7 60 -9 60
-38 0 -18 -1 -18 -28 2 -33 25 -66 18 -59 -12 5 -17 2 -19 -21 -14 -18 5 -23
4 -13 -3 10 -6 12 -20 8 -47 -4 -27 -3 -34 3 -24 5 8 10 25 10 38 0 12 5 22
11 22 6 0 9 -7 5 -15 -3 -8 0 -15 7 -15 8 0 7 -4 -3 -10 -13 -9 -13 -11 0 -20
13 -8 12 -10 -5 -11 -17 -1 -17 -2 -2 -6 13 -3 17 -15 17 -49 0 -26 4 -43 9
-39 23 14 28 -33 14 -135 -8 -58 -16 -107 -18 -109 -2 -2 -44 0 -93 4 l-89 7
-13 91 c-19 135 -19 138 -9 131 5 -3 9 4 9 15 0 14 8 21 25 23 35 4 36 22 3
26 -16 2 -28 8 -28 13 0 6 5 7 11 3 12 -7 10 11 -6 64 -6 18 -3 22 13 22 20 0
33 19 31 48 0 11 -2 12 -6 5 -2 -7 -8 -13 -13 -13 -4 0 -3 11 3 24 8 17 14 21
19 13 6 -9 11 -8 19 3 8 11 9 7 4 -17 -3 -17 -2 -34 4 -37 13 -8 42 4 35 15
-3 5 5 9 18 10 13 0 17 3 10 6 -10 4 -10 8 -1 19 15 19 9 25 -19 17 -18 -4
-20 -8 -11 -19 9 -11 8 -14 -5 -14 -9 0 -16 5 -16 12 0 6 -7 19 -16 29 -14 16
-13 17 17 15 17 -1 37 3 43 10 9 9 12 9 14 -3 2 -8 9 -13 15 -10z m-356 -5 c4
-92 59 -465 73 -504 8 -20 4 -23 -37 -33 -25 -7 -47 -11 -48 -9 -18 21 -175
439 -175 466 0 17 41 32 61 21 18 -9 39 7 39 30 0 11 4 10 20 -4 19 -18 20
-17 20 5 0 20 2 21 17 9 14 -12 15 -12 9 0 -7 10 5 28 20 31 0 0 1 -6 1 -12z
m-651 -96 c20 -19 54 -25 54 -10 0 5 5 6 10 3 15 -9 12 -25 -6 -25 -8 0 -12
-5 -9 -10 4 -6 1 -19 -6 -28 -7 -9 1 -4 18 12 34 30 69 34 39 3 -16 -15 -16
-17 -1 -17 8 0 20 10 25 23 9 21 9 21 9 -4 1 -28 -19 -42 -44 -33 -8 4 -15 1
-15 -4 0 -6 25 -12 55 -14 30 -2 54 -7 53 -13 -2 -5 -11 -8 -20 -7 -11 2 -18
-3 -18 -12 0 -9 -5 -16 -11 -16 -5 0 -7 -5 -4 -11 5 -6 11 -4 19 7 7 9 18 14
24 10 7 -4 12 -3 12 3 0 5 8 8 18 6 9 -2 23 -4 29 -4 7 -1 16 -12 19 -27 6
-22 10 -24 38 -19 l31 6 -29 -15 c-15 -9 -33 -13 -40 -9 -6 4 -5 0 2 -9 8 -9
19 -15 26 -12 7 3 23 -4 36 -16 13 -11 33 -20 45 -20 13 0 25 -6 28 -13 4 -10
-2 -13 -21 -11 -26 4 -26 3 -3 -4 28 -9 27 -7 84 -133 l44 -95 -40 -44 c-51
-58 -67 -90 -74 -149 -7 -59 18 -119 73 -181 28 -32 32 -39 14 -27 -88 58
-133 184 -96 272 21 50 9 43 -14 -7 -17 -39 -19 -59 -13 -221 l6 -179 -24 4
c-24 3 -27 12 -18 68 3 21 0 26 -23 28 -16 2 -28 8 -28 14 0 5 -6 8 -14 5 -15
-6 -30 18 -21 33 3 5 1 11 -5 15 -6 4 -10 -5 -10 -22 0 -20 -3 -24 -9 -14 -5
8 -7 21 -3 29 4 11 1 14 -11 9 -22 -8 -23 19 -2 40 21 20 1 46 -28 37 -13 -4
-17 -2 -13 5 4 6 1 11 -6 11 -10 0 -10 2 1 9 20 13 -7 40 -34 33 -19 -5 -19
-5 -2 13 10 10 14 21 9 24 -15 10 -25 101 -12 101 7 0 10 6 7 14 -3 7 0 19 6
25 8 8 7 11 -6 11 -18 0 -21 9 -11 34 5 12 20 16 58 16 31 0 46 4 38 9 -7 4
-12 12 -11 17 4 21 -2 35 -11 29 -12 -8 -59 44 -60 66 0 9 7 20 16 23 8 3 12
10 9 16 -10 15 -35 12 -35 -5 0 -18 -16 -20 -23 -2 -4 9 -8 8 -16 -3 -5 -8
-13 -11 -17 -8 -9 10 24 41 35 33 5 -3 12 4 16 15 6 20 35 28 35 10 0 -5 5
-10 12 -10 6 0 3 9 -7 20 -23 25 -29 25 -44 -2 l-11 -23 6 23 c6 24 -5 29 -24
10 -9 -9 -16 -6 -30 10 -22 25 -38 28 -45 10 -4 -9 -12 -5 -26 12 -21 26 -29
66 -11 55 6 -3 10 3 10 14 0 10 6 21 13 24 7 2 8 8 3 13 -5 5 -11 4 -13 -3 -3
-7 -11 -13 -19 -13 -8 0 -14 -9 -14 -19 0 -11 -5 -23 -12 -27 -7 -4 -8 -3 -4
4 4 7 3 12 -3 12 -5 0 -8 12 -5 26 3 14 1 23 -4 20 -5 -3 -16 8 -26 25 -9 16
-13 29 -7 29 5 0 12 -8 15 -18 7 -20 46 -24 46 -5 0 7 12 13 28 13 18 0 23 3
14 9 -19 12 -36 91 -22 105 7 7 10 7 10 -1 0 -6 9 -13 21 -16 20 -5 20 -5 3
14 -22 24 -4 25 22 1z m-1372 -105 c96 -44 179 -138 201 -228 6 -24 3 -27 -27
-32 -18 -3 -40 -7 -48 -10 -77 -22 -78 -22 -208 25 -116 40 -135 61 -145 158
-6 72 3 102 33 112 44 13 137 1 194 -25z m611 -73 c8 3 15 1 15 -4 0 -6 -6
-10 -14 -10 -9 0 -12 -7 -9 -20 5 -17 0 -20 -31 -20 -34 0 -42 -9 -37 -42 0
-5 -3 -8 -9 -8 -5 0 -10 -5 -10 -11 0 -6 6 -9 13 -6 6 2 20 0 29 -4 11 -6 22
-4 32 6 18 18 36 20 36 3 0 -9 3 -9 12 0 16 16 31 15 25 -1 -3 -7 1 -21 9 -32
18 -25 18 -45 -2 -45 -8 0 -12 4 -9 10 3 5 1 18 -5 27 -10 16 -10 15 -5 -4 7
-25 -13 -42 -26 -22 -7 11 -9 11 -9 1 0 -23 27 -42 59 -42 28 0 31 -3 31 -31
0 -17 4 -28 10 -24 6 3 10 1 10 -5 0 -7 6 -8 19 0 27 14 31 13 31 -10 0 -11
-7 -20 -15 -20 -8 0 -15 4 -15 8 0 5 -7 9 -15 9 -19 0 -10 -47 13 -64 9 -7 12
-16 8 -20 -4 -4 -11 -1 -16 7 -5 8 -12 11 -16 8 -3 -4 0 -14 8 -22 9 -9 19
-11 24 -6 15 15 56 0 50 -17 -3 -8 -6 -22 -7 -31 0 -13 -2 -13 -8 3 -7 17 -9
16 -15 -12 -5 -23 -13 -33 -26 -33 -20 0 -32 23 -24 45 4 9 0 15 -9 15 -9 0
-19 9 -22 20 -3 11 -11 20 -16 20 -13 0 -11 -18 4 -23 9 -4 8 -8 -3 -16 -8 -6
-22 -8 -30 -5 -8 4 -26 8 -39 9 -31 5 -81 56 -83 89 -1 14 -7 26 -13 26 -5 0
-4 4 4 9 7 5 10 14 7 20 -4 6 -12 8 -18 5 -7 -5 -9 2 -6 19 3 15 1 24 -3 21
-5 -3 -11 8 -15 23 -3 15 -15 53 -25 84 -22 64 -23 69 -9 69 6 0 10 -7 10 -16
0 -8 7 -22 15 -30 13 -14 16 -14 21 0 3 9 12 16 20 16 19 0 18 16 -1 24 -8 3
-15 11 -15 17 0 9 3 9 14 0 9 -8 21 -8 39 -2 27 10 45 31 28 31 -6 0 -11 7
-11 16 0 13 3 14 15 4 8 -7 22 -10 30 -6z m-1143 -471 c26 -12 70 -43 97 -68
72 -67 137 -205 99 -205 -9 0 -8 -4 2 -10 12 -8 12 -10 -5 -11 -17 -1 -16 -2
5 -9 14 -4 18 -9 10 -9 -13 -1 -13 -2 0 -11 13 -9 13 -10 0 -10 -19 1 -52 25
-49 37 1 4 -7 13 -18 18 -11 6 -17 17 -15 24 4 12 3 12 -11 0 -8 -8 -11 -16
-5 -18 6 -2 4 -7 -3 -12 -10 -6 -5 -8 13 -6 15 1 27 -2 28 -8 1 -5 9 -19 18
-29 17 -19 16 -19 -10 -1 -15 9 -25 22 -21 28 3 6 1 7 -6 3 -6 -4 -9 -12 -6
-17 6 -8 0 -11 -34 -13 -8 -1 -16 -8 -18 -16 -3 -9 -1 -11 4 -5 4 6 22 10 38
10 17 0 30 -4 30 -10 0 -5 -13 -9 -30 -7 -24 2 -27 1 -15 -8 12 -9 10 -10 -9
-5 -15 5 -27 2 -32 -6 -7 -11 -9 -11 -9 -1 0 7 -5 10 -12 6 -7 -4 -8 -3 -4 5
4 6 12 9 17 6 5 -4 9 -1 9 4 0 6 -5 11 -12 11 -6 0 -4 6 5 13 15 10 13 12 -18
12 -24 0 -34 -4 -30 -12 2 -7 0 -13 -5 -13 -6 0 -10 7 -10 15 0 8 -3 15 -7 15
-5 0 -18 3 -30 6 -19 5 -23 2 -24 -17 -1 -17 -3 -19 -6 -6 -2 9 -9 17 -16 17
-6 0 -3 6 6 13 15 11 14 12 -10 15 -16 1 -35 3 -43 5 -8 1 -15 -2 -15 -8 0 -5
11 -9 25 -8 22 2 23 1 5 -7 l-20 -9 20 0 c16 -1 17 -3 6 -10 -9 -6 -21 -3 -34
10 -12 10 -25 19 -29 19 -5 0 -7 4 -4 9 3 5 -1 12 -10 15 -10 4 -13 2 -8 -7 4
-6 4 -9 0 -5 -5 4 -19 3 -33 -3 -15 -5 -22 -5 -18 0 3 5 -5 11 -17 13 -13 2
-23 10 -23 18 0 8 -8 14 -18 14 -9 -1 -14 2 -11 7 8 13 32 11 36 -2 2 -7 10
-10 18 -7 9 3 3 10 -18 19 -18 7 -32 20 -32 26 0 7 -5 13 -11 13 -5 0 -7 -4
-4 -10 3 -5 1 -10 -4 -10 -6 0 -11 7 -11 15 0 8 -6 15 -12 15 -9 0 -8 4 2 10
12 8 13 11 1 19 -11 7 -11 9 0 14 9 4 7 6 -5 6 -11 1 -16 4 -13 8 4 3 2 12 -4
20 -6 7 -8 13 -3 13 5 0 3 4 -5 9 -17 11 39 55 106 82 67 27 217 22 285 -8z
m-1478 -28 c166 -33 407 -123 508 -190 42 -28 193 -158 220 -190 19 -22 24
-40 8 -30 -6 4 -7 -1 -3 -10 11 -31 -28 3 -92 78 -92 108 -170 167 -287 217
-182 77 -299 109 -460 125 -38 4 -68 10 -68 15 0 11 76 4 174 -15z m-1571 -40
c2 -25 -3 -29 -43 -43 -25 -8 -46 -16 -48 -17 -5 -4 53 -184 82 -255 l24 -59
-34 -7 c-19 -3 -36 -5 -37 -3 -9 13 -87 273 -87 289 0 25 -16 25 -75 0 -51
-22 -75 -15 -75 21 0 15 22 25 109 53 60 19 122 41 138 49 32 18 43 11 46 -28z
m4412 -46 c-2 -48 0 -52 29 -66 27 -12 27 -13 6 -9 -21 4 -26 1 -26 -14 0 -11
3 -20 7 -20 11 0 45 -35 52 -53 4 -9 20 -20 37 -23 16 -4 30 -10 30 -15 0 -5
-17 -2 -37 6 -33 14 -38 14 -52 1 -8 -9 -11 -19 -7 -23 5 -5 11 -2 13 5 7 17
33 15 33 -4 0 -8 5 -12 10 -9 16 10 49 -4 61 -27 10 -18 8 -19 -13 -14 -12 3
-17 3 -11 0 8 -3 11 -15 7 -30 -3 -13 -2 -24 3 -24 6 0 10 -12 11 -27 0 -16 3
-40 7 -55 7 -26 5 -28 -23 -28 -38 0 -50 -17 -26 -35 17 -12 19 -11 22 6 4 23
18 25 26 2 14 -37 -46 -38 -72 -2 -14 20 -42 26 -42 9 0 -5 6 -10 13 -10 7 0
18 -9 25 -20 7 -12 8 -20 2 -20 -5 0 -10 5 -10 10 0 6 -8 5 -20 -2 -25 -16
-32 -8 -36 39 -2 25 0 32 7 23 10 -17 12 -9 3 14 -5 13 -9 14 -20 5 -11 -9
-14 -9 -14 0 0 7 -5 9 -12 5 -7 -5 -9 -2 -6 7 10 25 -15 45 -61 52 -48 6 -59
13 -64 42 -2 11 -9 33 -15 48 -15 35 -15 40 -2 32 6 -3 10 -1 10 4 0 6 -4 11
-8 11 -5 0 -13 16 -19 35 -11 35 -8 40 25 36 17 -3 15 10 -5 25 -23 17 -36 18
-27 2 4 -7 4 -10 -1 -6 -5 5 -10 22 -12 39 l-3 32 21 -27 c11 -14 26 -26 32
-25 8 0 8 2 -1 6 -11 4 -42 54 -42 68 0 3 9 -4 20 -15 24 -24 33 -25 51 -4 12
15 11 16 -7 10 -18 -5 -21 -2 -20 21 1 25 4 28 32 25 19 -2 38 3 48 13 9 9 19
14 24 11 4 -2 14 -1 22 5 25 15 27 11 25 -42z m-3250 -110 c27 -124 29 -130
50 -125 90 23 255 31 320 17 17 -4 -22 -6 -85 -6 -63 0 -146 -6 -183 -14 l-69
-14 4 -36 c6 -50 46 -200 63 -236 28 -59 64 -155 55 -150 -4 3 -11 -1 -13 -7
-3 -7 -6 -2 -6 12 -1 14 -13 52 -27 85 -13 33 -38 112 -55 175 -16 63 -32 122
-35 132 -4 14 -15 13 -89 -17 -155 -61 -256 -135 -360 -267 -76 -97 -111 -158
-147 -263 -15 -44 -27 -73 -28 -63 -1 35 51 162 96 236 29 48 85 115 148 177
106 105 174 149 304 195 58 21 62 25 62 54 -1 17 -11 79 -24 139 -13 59 -20
107 -16 107 4 0 20 -59 35 -131z m-1482 43 c32 -19 35 -47 7 -62 -16 -8 -26
-7 -42 5 -40 28 -86 19 -129 -24 -33 -33 -39 -45 -39 -82 0 -84 66 -149 150
-149 54 1 75 15 95 64 16 38 43 48 64 22 10 -11 10 -20 0 -38 -17 -33 -60 -78
-91 -94 -32 -17 -115 -18 -155 -3 -91 34 -148 170 -109 263 19 45 75 100 117
113 40 13 93 7 132 -15z m-333 -81 c0 -22 -6 -31 -22 -36 -65 -18 -149 -59
-144 -70 2 -7 10 -31 17 -54 14 -47 17 -47 103 -4 54 27 79 24 74 -9 -3 -20
-41 -42 -140 -80 -4 -2 0 -27 9 -56 20 -61 18 -61 131 -15 35 14 65 23 68 21
2 -3 7 -19 10 -36 5 -25 3 -32 -9 -32 -8 0 -55 -12 -103 -26 -49 -15 -96 -28
-106 -31 -12 -4 -18 4 -23 29 -13 60 -96 307 -105 313 -20 13 -8 24 43 41 28
9 81 30 117 45 36 16 68 28 73 29 4 0 7 -13 7 -29z m-272 -202 c52 -133 64
-217 38 -267 -28 -54 -89 -69 -126 -32 -19 19 -29 86 -12 78 4 -2 20 -10 35
-18 34 -16 60 -5 65 28 2 12 -17 82 -42 157 -49 145 -53 161 -33 168 24 10 31
0 75 -114z m3304 -61 c25 -46 71 -133 102 -195 48 -94 65 -117 109 -151 100
-77 191 -111 327 -122 l85 -7 -75 -1 c-133 -3 -273 46 -360 124 -41 37 -48 38
-30 4 37 -70 51 -320 24 -460 -11 -63 -13 -66 -9 -20 20 212 15 305 -20 446
-17 67 -136 318 -167 351 -12 12 -17 27 -13 34 5 7 4 10 -2 6 -15 -9 -44 38
-37 57 3 9 9 16 13 16 4 0 28 -37 53 -82z m-3579 53 c33 -13 80 -62 103 -108
26 -53 23 -117 -9 -180 -31 -59 -52 -77 -118 -94 -123 -33 -239 68 -239 208 0
113 155 215 263 174z m5077 -17 c69 -20 162 -109 181 -173 12 -40 11 -45 -6
-57 -93 -68 -278 -25 -397 93 -64 63 -64 78 -5 110 84 46 140 53 227 27z
m-5435 -113 c53 -24 67 -43 69 -90 0 -28 -7 -48 -28 -75 -32 -42 -32 -42 40
-89 56 -37 61 -51 19 -55 -22 -2 -44 7 -84 38 -39 28 -65 40 -88 40 -45 0 -49
-18 -19 -79 31 -61 32 -67 5 -82 -17 -9 -23 -8 -30 2 -13 20 -123 359 -118
362 8 7 155 45 174 46 11 0 38 -8 60 -18z m3168 -41 c97 -35 159 -73 219 -134
55 -55 78 -95 77 -131 -1 -25 -3 -22 -14 18 -29 107 -28 55 1 -64 8 -31 14
-67 13 -80 -1 -24 -20 48 -40 156 -11 55 -27 85 -45 85 -4 0 0 -8 9 -18 9 -10
17 -33 18 -52 1 -19 8 -59 16 -87 8 -29 12 -63 10 -75 -4 -21 -4 -20 -6 3 0
15 -7 44 -15 66 -8 22 -14 56 -14 76 0 23 -8 44 -22 59 l-22 23 16 -33 c10
-18 14 -41 11 -51 -3 -10 1 -36 9 -58 8 -22 17 -67 20 -99 l6 -59 -14 65 c-8
36 -19 78 -25 93 -6 16 -11 43 -11 60 0 18 -5 39 -10 47 -12 17 -6 -43 12
-128 6 -28 9 -54 6 -57 -3 -3 -13 34 -22 82 -17 86 -57 183 -85 206 -12 10
-12 8 -1 -13 7 -14 21 -36 31 -50 10 -14 21 -50 23 -80 l6 -55 -14 58 c-7 32
-19 64 -25 70 -9 9 -9 4 -2 -18 11 -36 24 -121 17 -114 -6 5 -35 119 -41 157
-2 13 -6 26 -9 30 -7 7 -1 -41 13 -113 6 -27 13 -61 16 -75 2 -14 -4 1 -15 34
-11 32 -24 85 -29 116 -5 32 -17 72 -26 89 -16 32 -29 43 -19 16 4 -8 1 -15
-6 -15 -6 0 -8 -5 -5 -10 3 -6 15 -65 25 -133 11 -67 22 -133 25 -147 l6 -25
-11 25 c-6 14 -20 79 -31 145 -12 66 -27 130 -35 142 -18 29 -18 34 3 26 15
-6 16 -5 3 9 -11 11 -17 12 -22 4 -5 -7 -8 -7 -8 3 0 8 -2 12 -5 9 -3 -3 3
-23 14 -44 18 -37 49 -220 38 -230 -3 -3 -10 35 -16 83 -7 48 -22 111 -33 138
-29 65 -42 80 -33 35 4 -19 12 -39 19 -45 13 -11 37 -116 35 -156 0 -13 -8 7
-17 44 -9 38 -20 66 -23 63 -3 -4 0 -34 8 -67 8 -34 12 -66 10 -72 -2 -6 -11
20 -20 58 -10 38 -21 72 -27 75 -11 7 -32 98 -25 110 3 5 1 11 -5 15 -15 9
-12 -41 5 -105 8 -30 14 -66 14 -80 -1 -23 -2 -23 -9 5 -5 17 -14 53 -20 80
-6 28 -15 58 -20 67 -6 10 -10 23 -9 30 0 7 5 4 10 -7 8 -19 9 -19 6 -1 -1 11
-10 20 -20 22 -14 2 -17 -2 -12 -14 9 -23 45 -165 45 -177 -1 -22 -19 25 -39
100 -12 44 -24 88 -27 99 -6 17 -2 18 49 13 30 -4 93 -20 140 -37z m-1753 -35
c0 -20 -6 -38 -12 -40 -7 -2 -53 -16 -101 -31 -49 -15 -91 -33 -94 -41 -8 -21
16 -93 30 -93 7 0 48 14 91 30 43 17 80 29 81 28 2 -2 6 -17 9 -34 l7 -30 -91
-23 c-74 -19 -90 -27 -90 -43 0 -28 27 -88 43 -94 8 -3 50 8 93 25 44 17 82
31 86 31 3 0 11 -14 17 -30 8 -23 7 -32 -2 -35 -7 -2 -65 -20 -131 -40 -65
-20 -120 -34 -123 -31 -13 13 -99 384 -90 392 3 3 34 12 69 19 35 8 92 27 128
44 36 16 68 30 73 30 4 1 7 -15 7 -34z m-1713 -41 c61 -39 82 -132 41 -172
-24 -22 -124 -72 -145 -72 -19 0 -16 -14 17 -70 l30 -51 -27 -10 c-14 -5 -30
-8 -35 -7 -13 5 -127 308 -128 342 -1 5 36 22 82 38 87 29 123 30 165 2z
m1334 -94 c25 -14 25 -56 0 -70 -15 -8 -29 -6 -55 6 -33 16 -38 16 -81 0 -58
-23 -98 -63 -113 -115 -11 -36 -10 -46 9 -91 22 -52 38 -65 93 -81 73 -21 156
30 156 96 0 34 0 34 -27 19 -58 -30 -107 -9 -83 36 9 17 116 60 150 60 12 0
20 -17 30 -67 7 -38 15 -73 17 -78 4 -12 -85 -83 -136 -110 -49 -25 -155 -18
-199 14 -66 46 -88 132 -57 222 21 60 49 92 119 134 63 37 135 47 177 25z
m-448 -272 c53 -68 110 -139 126 -158 38 -43 38 -48 5 -60 -38 -15 -40 -14
-72 33 -17 24 -35 40 -43 38 -8 -2 -50 -14 -94 -26 l-80 -21 3 -48 c3 -52 -6
-66 -43 -66 -18 0 -20 6 -17 52 3 55 40 343 47 366 3 6 20 12 39 12 31 0 40
-8 129 -122z m3287 56 c0 -7 15 -35 34 -61 30 -43 73 -124 172 -323 31 -62
164 -445 164 -472 0 -29 -21 16 -80 172 -64 169 -189 442 -207 453 -15 9 21
-134 57 -233 18 -47 70 -195 115 -330 46 -135 104 -301 130 -370 79 -214 256
-733 252 -744 -6 -19 -70 148 -204 539 -74 215 -160 467 -193 562 -32 94 -79
220 -104 280 -54 133 -78 220 -75 282 2 39 -4 56 -33 103 -20 31 -42 59 -48
63 -8 5 -7 12 5 25 13 14 14 23 6 39 -14 25 -14 44 -1 36 6 -3 10 -13 10 -21z
m-3645 -53 c8 -16 23 -74 35 -130 11 -57 29 -126 40 -154 21 -54 19 -61 -18
-72 -19 -5 -25 -1 -39 32 -8 21 -25 77 -37 126 -11 48 -24 87 -27 87 -7 0 -21
-51 -40 -142 -7 -32 -21 -72 -31 -89 l-19 -31 -37 27 c-20 15 -68 60 -105 99
l-68 71 6 -36 c3 -20 21 -74 39 -120 46 -113 47 -121 14 -129 -26 -8 -27 -6
-56 89 -45 141 -84 282 -80 285 1 2 21 6 43 8 36 5 43 2 60 -22 47 -65 155
-172 169 -167 9 4 17 26 21 54 22 176 38 229 73 241 33 11 38 9 57 -27z m1474
-127 c35 -30 44 -61 12 -44 -54 28 -146 1 -179 -53 -70 -112 50 -254 171 -203
40 16 59 50 50 85 -6 25 -8 25 -63 6 -54 -19 -50 -20 -50 14 0 28 4 31 71 53
84 27 85 26 95 -81 7 -74 6 -75 -22 -98 -16 -13 -48 -30 -71 -39 -149 -57
-307 109 -249 260 42 110 163 161 235 100z m-1948 -134 c26 -69 56 -149 68
-178 l21 -53 -26 -9 c-35 -14 -54 -12 -54 4 0 7 -27 87 -60 177 -33 90 -60
167 -60 171 0 8 29 17 50 14 8 -1 32 -49 61 -126z m5119 92 c0 -8 -6 -11 -96
-55 -31 -15 -55 -30 -52 -32 5 -6 100 34 108 45 21 29 122 51 135 30 3 -5 -3
-10 -13 -10 -11 0 -25 -6 -31 -14 -10 -12 -7 -13 24 -4 29 10 42 8 73 -7 33
-16 35 -18 17 -26 -15 -6 -11 -8 19 -8 37 -1 39 -2 20 -16 -17 -13 -16 -14 21
-8 73 11 32 -5 -85 -32 -68 -16 -147 -42 -192 -65 -86 -42 -96 -31 -14 18 33
19 90 40 146 53 50 12 89 23 87 25 -7 8 -150 -17 -192 -32 -22 -9 -53 -26 -70
-38 -16 -12 -39 -26 -50 -29 -20 -7 -20 -7 -1 8 11 8 24 15 29 15 5 0 7 7 3
15 -3 8 -2 14 2 13 4 0 33 11 65 25 32 15 74 27 95 28 20 1 48 5 62 9 16 6 6
7 -29 3 -39 -4 -52 -3 -47 6 9 14 0 14 -27 -1 -44 -23 -187 -76 -181 -66 4 6
44 27 90 49 46 21 96 50 111 65 l28 27 -35 -22 c-19 -11 -55 -30 -80 -41 -66
-30 -101 -48 -140 -71 -19 -11 -27 -14 -16 -7 79 55 86 73 12 32 -26 -14 -49
-24 -52 -22 -2 3 23 20 57 37 65 36 74 52 14 27 -54 -23 -57 -19 -5 9 49 26
65 30 55 15 -3 -5 -4 -10 -2 -10 8 0 93 50 85 50 -14 0 -134 -33 -151 -42 -10
-5 -21 -7 -24 -5 -12 13 87 50 151 57 39 4 72 8 74 9 1 0 2 -2 2 -7z m-3506
-40 c8 -16 24 -64 35 -108 11 -43 30 -103 41 -132 32 -82 25 -110 -24 -98 -28
7 -118 67 -166 110 -37 35 -90 70 -95 64 -2 -2 14 -55 36 -118 21 -63 39 -118
39 -121 0 -4 -8 -9 -17 -12 -10 -2 -26 -8 -35 -12 -14 -6 -18 -2 -18 15 0 22
-42 167 -82 284 -16 48 -18 60 -7 67 28 18 49 7 150 -74 57 -46 115 -89 127
-96 22 -12 23 -11 18 6 -17 54 -55 237 -50 245 11 17 34 7 48 -20z m-330 -266
c31 -96 56 -179 56 -185 0 -11 -31 -31 -49 -31 -5 0 -13 15 -16 33 -4 17 -27
94 -51 170 -54 169 -55 187 -13 187 14 0 29 -36 73 -174z m4121 155 c-6 -5
-35 -18 -65 -28 -56 -19 -174 -82 -167 -89 5 -5 183 71 214 91 27 18 38 14 46
-14 5 -21 -5 -27 -103 -51 -25 -7 -66 -25 -91 -41 -56 -36 -74 -38 -34 -4 l30
26 -42 -21 c-50 -24 -65 -26 -37 -5 13 10 15 14 5 15 -11 0 -10 5 4 20 17 19
14 18 -38 -5 -31 -13 -57 -23 -57 -20 0 10 101 55 110 50 5 -3 27 6 47 20 21
14 44 25 53 25 8 0 38 9 65 20 56 21 74 25 60 11z m-4276 -123 c33 -106 72
-220 86 -250 9 -23 -43 -47 -56 -26 -7 11 -50 140 -79 238 -6 21 -8 17 -14
-25 -17 -132 -29 -187 -46 -208 l-19 -22 -92 90 c-50 50 -88 81 -84 70 21 -54
65 -201 65 -216 0 -9 -7 -20 -16 -23 -24 -9 -34 -7 -34 7 0 7 -20 77 -45 157
-51 165 -54 185 -24 193 33 9 63 -8 105 -58 83 -99 101 -118 111 -112 6 4 13
42 17 85 8 95 30 167 59 187 12 8 24 15 28 15 3 0 20 -46 38 -102z m4410 16
c31 -97 31 -232 2 -306 -27 -69 -96 -165 -145 -203 -66 -50 -60 -20 12 59 79
87 100 130 126 267 16 77 16 91 2 150 -8 35 -18 72 -21 82 -4 9 -5 17 -1 17 3
0 14 -30 25 -66z m-3311 -219 c25 -48 92 -143 147 -212 36 -44 155 -154 174
-161 4 -1 40 29 79 68 45 45 82 72 101 76 39 8 39 19 1 39 -16 9 -30 18 -30
20 0 3 18 -4 40 -15 21 -11 50 -20 62 -20 13 0 30 -5 38 -10 11 -7 3 -10 -29
-10 -25 0 -63 -9 -86 -20 -47 -23 -145 -122 -145 -147 0 -18 47 -73 63 -73 5
0 34 -16 65 -35 36 -21 98 -46 167 -64 119 -32 128 -40 18 -17 -87 19 -147 40
-183 66 -37 26 -48 25 -24 -2 10 -12 -8 1 -40 30 -33 29 -63 52 -67 52 -4 0
-11 -10 -15 -22 -7 -23 -7 -41 0 -128 3 -45 3 -45 -10 -15 -7 17 -13 62 -14
102 0 44 -5 75 -12 79 -8 5 -6 9 7 14 16 6 10 13 -36 49 -100 79 -131 113
-209 231 -70 106 -131 235 -145 309 -3 14 9 -12 28 -59 18 -47 43 -103 55
-125z m-1584 102 c45 -28 93 -95 102 -144 15 -80 -23 -156 -96 -193 -125 -64
-260 36 -260 190 0 45 4 55 40 94 72 78 143 95 214 53z m-334 -102 c58 -30 22
-75 -39 -49 -54 23 -80 18 -122 -25 -45 -44 -49 -73 -20 -137 19 -43 59 -77
100 -87 37 -9 90 21 109 60 12 25 22 33 37 31 49 -7 11 -99 -55 -133 -55 -28
-153 -12 -203 33 -56 51 -78 172 -44 239 34 64 169 103 237 68z m3931 -33 c-6
-11 -60 -85 -120 -164 -112 -147 -233 -274 -251 -263 -5 3 -10 -2 -10 -12 0
-15 -2 -16 -10 -3 -8 12 -10 12 -10 -5 0 -14 -3 -16 -9 -7 -6 11 -15 10 -44
-4 -21 -10 -37 -22 -37 -27 0 -5 7 -4 15 3 9 7 15 8 15 2 0 -5 -11 -17 -24
-25 -23 -15 -24 -15 -19 3 3 12 0 20 -8 20 -7 0 -9 -3 -6 -7 4 -3 2 -13 -5
-20 -9 -11 -9 -16 1 -22 10 -6 9 -10 -4 -14 -9 -4 -13 -3 -10 3 3 6 1 10 -5
10 -7 0 -14 -9 -17 -20 -3 -11 -10 -20 -15 -20 -6 0 -3 10 6 23 9 12 22 34 29
49 8 20 30 36 85 60 41 18 79 39 86 48 6 8 34 35 61 60 l50 45 -45 -47 c-24
-27 -40 -48 -34 -48 24 0 245 263 313 373 24 39 42 45 22 9z m-2567 -242 c64
-188 66 -205 34 -194 -56 16 -90 35 -166 92 -45 33 -91 63 -102 67 -11 3 -20
11 -20 17 0 6 -3 9 -6 6 -3 -4 8 -46 25 -95 41 -120 42 -144 11 -159 -13 -7
-26 -12 -27 -10 -2 1 -8 29 -14 61 -6 32 -29 106 -50 164 -59 154 -58 141 -12
141 28 0 46 -6 58 -20 11 -12 46 -37 79 -57 34 -20 82 -54 107 -75 25 -21 48
-38 51 -38 3 0 -9 53 -28 118 -18 64 -33 125 -34 134 0 17 20 30 31 19 4 -3
32 -80 63 -171z m4417 124 c30 -26 42 -63 28 -80 -19 -23 -104 -18 -133 9 -56
51 -64 55 -75 44 -6 -6 -11 -7 -11 -1 0 5 15 19 33 31 41 29 125 27 158 -3z
m-4907 -104 c38 -14 117 -90 132 -127 37 -86 -6 -187 -100 -235 -50 -26 -143
-22 -183 8 -45 33 -81 86 -94 136 -11 41 -10 51 6 88 29 65 131 139 192 140
12 0 33 -4 47 -10z m-344 -159 c46 -31 67 -60 81 -113 30 -114 -65 -228 -190
-228 -87 0 -138 31 -172 105 -48 104 1 211 116 253 46 18 125 9 165 -17z
m-388 -92 c10 -6 14 -16 11 -30 -7 -25 -30 -36 -46 -20 -27 27 -127 2 -141
-36 -13 -32 28 -53 104 -53 81 0 123 -13 144 -45 21 -32 20 -63 -4 -102 -38
-62 -110 -89 -187 -70 -55 14 -75 39 -52 62 14 14 19 14 54 -1 50 -20 110 -6
127 31 19 42 6 51 -82 59 -120 10 -165 38 -163 103 1 42 50 98 98 113 32 10
110 4 137 -11z m-1978 -1594 c103 -18 173 -54 252 -127 47 -44 74 -81 102
-136 35 -72 37 -81 37 -172 0 -87 -2 -98 -25 -126 -26 -32 -35 -38 -105 -72
-22 -11 -50 -31 -63 -46 -12 -15 -36 -29 -52 -33 -16 -3 -27 -9 -24 -14 3 -5
-4 -9 -15 -9 -11 0 -26 -6 -33 -13 -15 -15 -135 -43 -145 -33 -3 3 2 6 11 6
38 0 146 62 200 115 81 80 110 141 110 235 0 63 -5 85 -29 133 -77 154 -254
234 -434 196 -39 -9 -71 -12 -71 -7 0 4 -11 18 -25 30 -30 26 -32 44 -6 58 59
31 191 37 315 15z m-81 -320 c29 -13 67 -39 85 -56 56 -55 39 -87 -52 -96 -42
-4 -61 -2 -81 11 -55 36 -72 94 -41 141 20 31 25 31 89 0z m314 -805 c6 0 25
-12 42 -26 90 -76 -31 -205 -139 -149 -29 15 -60 60 -60 88 0 41 83 102 125
92 11 -3 25 -5 32 -5z m1449 -356 c32 -16 73 -48 94 -74 21 -25 286 -418 590
-875 304 -456 597 -893 652 -970 122 -173 356 -525 335 -505 -8 8 -66 92 -130
185 -64 94 -139 204 -168 245 -104 147 -337 496 -938 1400 -178 267 -341 505
-364 529 -57 60 -113 83 -222 92 l-90 7 92 -2 c79 -2 99 -6 149 -32z m-81
-124 c18 -15 284 -414 370 -555 27 -44 64 -100 82 -124 18 -24 33 -49 33 -55
0 -6 -5 -3 -11 7 -5 9 -14 17 -19 17 -5 0 -25 11 -45 25 -67 45 -267 95 -392
99 -28 0 -47 4 -41 7 6 4 4 9 -5 12 -7 3 -20 2 -27 -3 -7 -4 -24 -1 -39 6 -14
8 -40 14 -57 14 -17 0 -53 7 -80 15 -27 8 -73 15 -101 15 -36 0 -53 4 -53 13
0 9 -2 9 -9 -1 -7 -11 -11 -11 -22 0 -8 8 -52 29 -98 48 -46 18 -96 44 -111
56 -15 13 -30 20 -34 17 -4 -4 -9 3 -12 15 -4 12 -15 24 -25 27 -31 10 -59 55
-59 96 0 21 -5 39 -12 41 -17 6 156 72 412 159 186 64 211 70 271 67 39 -2 74
-10 84 -18z m-162 -1258 c2 7 8 9 13 5 5 -4 3 -11 -3 -15 -7 -5 -2 -13 13 -25
25 -19 32 -11 12 13 -7 8 -1 4 14 -9 16 -14 30 -22 33 -19 3 3 -1 11 -10 18
-8 7 -15 20 -15 28 0 13 3 12 15 -4 8 -11 15 -14 15 -6 0 7 9 3 21 -9 l22 -22
13 24 c12 22 13 22 15 4 1 -11 1 -24 0 -29 -1 -4 4 -15 10 -23 10 -11 14 -11
20 -1 5 7 9 18 9 23 0 6 -4 3 -10 -5 -14 -22 -22 -6 -11 21 5 13 10 18 10 10
1 -7 7 -11 15 -8 10 4 13 1 10 -7 -4 -10 4 -13 30 -10 33 2 35 1 25 -17 -5
-11 -15 -17 -22 -13 -9 5 -9 3 0 -6 10 -11 16 -10 32 9 11 13 25 20 30 16 7
-4 3 -14 -9 -27 -28 -30 -15 -36 16 -7 22 21 24 21 18 4 -7 -18 -6 -19 9 -6
10 8 20 11 24 7 3 -3 1 -6 -5 -6 -7 0 -12 -5 -12 -10 0 -6 10 -8 23 -5 16 4
28 0 38 -11 8 -10 9 -15 4 -12 -6 3 -19 -12 -29 -33 -13 -27 -24 -38 -34 -34
-12 5 -13 3 -2 -10 12 -14 16 -12 33 19 24 42 53 52 68 24 6 -11 8 -27 5 -35
-5 -13 -4 -14 8 -4 12 10 17 7 29 -16 12 -23 13 -32 2 -46 -15 -21 -25 -22
-25 -2 0 8 5 15 10 15 6 0 10 8 10 18 -1 38 -25 -23 -26 -66 l-2 -44 15 31
c15 29 40 45 30 19 -2 -7 -1 -22 3 -34 6 -14 2 -28 -11 -45 l-19 -24 -20 25
c-15 18 -19 35 -16 60 3 19 2 27 0 18 -3 -10 -9 -18 -14 -18 -5 0 -3 -18 5
-40 8 -22 12 -40 9 -40 -2 0 0 -9 6 -20 6 -11 7 -20 2 -20 -5 0 -14 18 -21 40
-6 22 -16 40 -21 40 -6 0 -6 -10 0 -26 12 -31 12 -34 2 -34 -4 0 -13 21 -20
47 -10 37 -10 48 0 55 15 9 6 11 -16 2 -9 -3 -14 -10 -11 -14 8 -12 35 -163
31 -168 -2 -2 -10 23 -17 55 -15 68 -14 64 -23 84 -12 27 -11 72 2 76 6 3 10
-1 9 -9 -2 -7 -2 -10 0 -5 3 4 9 5 14 1 16 -10 9 8 -8 21 -13 10 -19 10 -30
-1 -7 -7 -13 -17 -13 -23 0 -6 -4 -11 -10 -11 -5 0 -10 9 -10 20 0 11 -5 20
-11 20 -6 0 -8 -7 -5 -15 18 -44 17 -49 -3 -26 -12 13 -21 29 -21 36 0 7 -7
18 -15 25 -8 7 -12 16 -9 21 3 5 0 9 -5 9 -17 0 -13 -22 9 -50 21 -27 25 -40
12 -40 -11 0 -52 74 -52 94 0 9 -4 16 -9 16 -6 0 -6 -12 0 -32 5 -17 7 -34 4
-36 -8 -8 -35 65 -35 93 0 14 -5 25 -10 25 -11 0 -6 -28 15 -92 7 -21 9 -35 4
-32 -15 9 -10 -7 26 -77 19 -38 31 -69 27 -69 -15 0 -73 140 -78 186 -4 51
-43 121 -56 101 -6 -10 -12 0 -33 60 -5 14 -35 6 -35 -9 0 -5 -4 -6 -10 -3 -5
3 -10 1 -10 -4 0 -6 4 -11 8 -11 5 0 13 -16 19 -35 15 -48 7 -44 -18 10 -12
25 -27 45 -35 45 -8 0 -14 5 -14 10 0 7 7 7 22 -1 18 -10 20 -9 14 6 -5 15 -4
16 9 5 30 -25 14 4 -17 33 -18 16 -26 24 -16 18 12 -9 17 -9 21 1z m8142 -221
c-6 -5 -75 -30 -155 -54 -156 -49 -536 -188 -590 -217 -25 -13 -180 -70 -189
-70 -13 1 94 53 167 80 42 16 120 47 172 70 134 59 290 117 390 146 47 13 105
30 130 38 53 17 88 20 75 7z"/>
<path d="M2595 7835 c-58 -20 -95 -68 -95 -123 0 -116 104 -187 200 -137 89
46 74 231 -21 264 -38 13 -35 13 -84 -4z"/>
<path d="M2214 7710 c-33 -13 -37 -27 -24 -76 16 -57 27 -65 74 -54 73 16 104
69 70 118 -12 17 -25 22 -57 21 -23 0 -52 -4 -63 -9z"/>
<path d="M1932 7599 c-72 -14 -74 -18 -37 -96 27 -59 37 -63 95 -33 54 28 65
51 44 95 -9 19 -20 35 -24 35 -5 0 -14 2 -22 4 -7 2 -32 0 -56 -5z"/>
<path d="M2596 6669 c-112 -98 4 -281 134 -214 40 21 60 53 60 98 0 124 -110
190 -194 116z"/>
<path d="M3194 6326 c-50 -22 -84 -75 -84 -130 0 -83 45 -136 116 -136 44 0
99 25 119 54 39 55 -1 177 -69 210 -40 19 -42 19 -82 2z"/>
<path d="M2775 6184 c-54 -28 -75 -54 -75 -95 0 -74 36 -130 97 -150 48 -15
117 11 144 55 68 112 -52 250 -166 190z"/>
<path d="M8530 5180 c-8 -4 -91 -35 -185 -69 -93 -33 -226 -81 -295 -106 -262
-96 -318 -117 -410 -149 -85 -30 -215 -85 -165 -71 43 13 246 86 365 131 184
69 303 112 410 149 52 18 131 46 175 62 135 50 126 51 175 -19 24 -33 93 -115
154 -182 237 -260 374 -417 489 -561 122 -152 200 -245 292 -345 27 -30 66
-75 86 -100 21 -25 40 -42 44 -38 4 4 -51 71 -122 150 -70 79 -182 211 -248
292 -66 81 -163 197 -215 257 -52 60 -117 136 -145 168 -27 33 -100 112 -160
178 -61 65 -129 143 -152 173 -53 73 -74 91 -93 80z"/>
<path d="M8405 5109 c-77 -28 -212 -77 -300 -109 -438 -162 -643 -233 -655
-225 -10 6 -87 -14 -165 -45 -27 -10 -180 -66 -340 -124 -276 -100 -389 -144
-372 -145 4 -1 24 6 45 15 20 9 80 31 132 49 52 19 113 40 135 49 150 55 515
184 540 190 67 17 8 -7 -210 -84 -287 -101 -444 -158 -610 -221 -142 -53 -803
-297 -980 -361 -60 -21 -186 -68 -280 -102 -93 -35 -258 -95 -365 -134 -385
-140 -507 -185 -625 -229 -66 -24 -210 -77 -320 -118 -377 -138 -475 -178
-475 -190 0 -7 83 -131 127 -192 62 -83 164 -213 168 -213 2 0 78 29 170 65
91 36 174 65 183 65 23 -1 -88 -48 -225 -96 -62 -21 -113 -43 -113 -48 0 -13
100 -160 157 -231 27 -33 76 -98 110 -145 33 -47 72 -95 86 -108 l24 -23 64
24 c35 13 100 38 144 55 151 57 308 112 312 108 5 -4 -128 -60 -207 -85 -99
-33 -300 -114 -300 -123 0 -9 117 -197 137 -219 12 -15 27 -11 166 43 84 32
181 70 217 82 36 13 155 58 265 101 110 42 256 97 325 122 143 53 155 60 139
79 -8 10 -8 14 0 14 6 0 11 -4 11 -10 0 -5 7 -10 15 -10 19 0 229 81 293 114
l52 26 -90 105 c-50 57 -96 108 -103 112 -7 4 24 24 75 48 l87 41 -105 117
-104 117 26 16 c31 21 258 104 282 104 29 -1 -9 -18 -119 -55 -100 -33 -149
-58 -149 -75 0 -9 62 -86 142 -173 l43 -48 90 34 c164 64 225 92 225 105 0 8
-46 60 -103 118 -120 121 -123 105 36 168 53 22 97 42 97 45 -1 3 -41 58 -90
121 -50 63 -90 117 -90 121 0 4 36 21 80 39 44 18 80 35 80 39 0 10 -43 65
-119 151 l-64 73 133 49 c73 27 135 47 137 45 3 -4 -152 -65 -204 -81 -13 -4
-23 -12 -23 -18 0 -5 27 -40 61 -76 33 -37 70 -84 82 -104 12 -21 28 -38 34
-38 7 0 36 9 65 20 29 11 58 20 63 20 24 -1 -49 -32 -150 -64 -60 -19 -119
-42 -130 -50 -20 -14 -20 -15 4 -48 66 -89 148 -179 169 -185 14 -3 45 5 85
25 34 16 97 42 140 57 42 15 77 31 77 34 0 12 -53 85 -117 164 l-64 78 38 15
c21 9 57 24 81 35 l44 19 -24 41 c-13 23 -51 75 -85 115 -58 67 -61 74 -44 83
20 11 212 81 221 81 15 -1 -33 -22 -90 -41 -36 -12 -77 -28 -93 -36 l-27 -14
50 -64 c27 -36 61 -86 76 -110 14 -25 28 -45 30 -45 2 0 37 9 76 20 39 11 73
18 75 16 2 -2 -38 -18 -89 -36 -51 -18 -119 -46 -150 -61 l-58 -29 66 -83 c36
-45 77 -98 93 -116 l27 -35 60 31 c32 16 91 40 129 53 39 12 84 28 100 36 17
7 78 30 138 50 59 20 107 40 107 44 0 4 -19 30 -43 56 -56 64 -137 170 -137
181 0 4 38 23 85 42 l84 34 -19 26 c-11 14 -55 64 -99 111 -51 54 -75 87 -68
92 15 8 247 88 256 88 18 -1 -34 -23 -116 -50 -50 -17 -97 -37 -103 -45 -15
-18 -9 -26 90 -133 l75 -81 70 20 c39 10 94 30 123 44 29 14 56 25 60 25 4 0
13 4 21 9 11 7 -2 30 -62 109 -43 56 -80 107 -83 116 -7 18 18 29 201 90 72
24 174 62 228 85 54 22 133 51 175 65 90 29 298 102 327 116 11 5 65 25 120
45 206 75 345 128 345 132 0 3 -71 101 -95 130 -8 9 -43 0 -150 -38z m-2429
-1085 c-16 -9 -74 -33 -130 -54 -55 -21 -113 -43 -129 -49 l-27 -11 58 -73
c32 -41 69 -90 81 -110 12 -20 30 -37 39 -37 9 0 47 13 85 29 37 16 67 26 67
21 0 -9 -86 -47 -154 -67 -93 -28 -126 -44 -126 -63 0 -10 26 -52 58 -92 73
-92 97 -128 84 -128 -5 0 -21 17 -35 38 -22 34 -63 85 -130 164 l-23 27 64 27
c35 15 66 33 69 41 5 14 -130 199 -150 206 -7 2 -28 0 -47 -4 -55 -13 -262
-94 -262 -102 0 -14 125 -157 163 -188 l37 -29 58 19 c44 15 54 16 39 5 -11
-8 -31 -18 -45 -21 -32 -8 -203 -74 -213 -83 -10 -9 182 -232 206 -238 12 -3
-24 -21 -99 -49 -64 -24 -119 -42 -121 -39 -2 2 12 10 33 16 49 17 144 60 144
66 0 9 -85 114 -143 178 l-53 59 -89 -33 c-110 -41 -215 -87 -215 -95 0 -4 21
-34 46 -68 l46 -62 -44 45 c-84 85 -77 81 -138 65 -30 -8 -56 -12 -58 -10 -2
2 16 9 39 15 52 13 94 29 171 65 l57 26 -43 57 c-24 31 -56 68 -71 82 -14 13
-35 39 -46 57 l-20 32 -111 -39 c-61 -22 -113 -38 -115 -36 -2 2 43 20 99 40
57 21 126 46 153 57 79 32 83 33 38 4 -24 -14 -43 -30 -43 -35 0 -4 26 -37 58
-72 31 -35 72 -81 91 -102 l33 -39 67 23 c36 13 110 44 164 68 l99 46 -36 30
c-36 32 -169 187 -164 191 2 2 66 26 143 54 170 62 336 125 430 162 78 31 105
36 61 13z m-1566 -971 c57 -78 161 -183 182 -183 11 0 75 20 141 45 66 25 125
44 130 42 6 -2 -25 -16 -69 -31 -120 -42 -158 -58 -170 -73 -7 -8 -14 -10 -15
-5 -2 6 -44 -8 -94 -30 -49 -22 -152 -62 -228 -88 -76 -26 -152 -57 -167 -69
-32 -23 -45 -27 -34 -10 10 16 138 74 209 94 33 10 94 33 135 52 41 20 90 42
108 49 l33 15 -61 56 c-53 49 -150 164 -150 178 0 16 21 -1 50 -42z m1239
-128 c-15 -8 -70 -30 -122 -49 -110 -39 -183 -77 -179 -94 3 -15 -15 -16 -20
-2 -2 7 -19 5 -48 -6 -25 -9 -126 -44 -226 -79 -99 -35 -200 -73 -223 -85 -24
-12 -45 -19 -48 -16 -11 10 146 75 442 181 66 24 147 55 180 70 99 45 229 94
250 94 17 0 16 -2 -6 -14z"/>
<path d="M8595 4981 c-33 -15 -130 -54 -215 -86 -85 -31 -156 -59 -158 -60 -3
-3 83 -118 132 -176 l24 -29 104 34 c56 19 157 54 223 80 128 49 135 51 135
36 0 -5 -8 -10 -18 -10 -33 0 -262 -96 -262 -110 0 -5 38 -50 85 -101 47 -51
85 -97 85 -101 0 -11 44 -10 76 2 22 9 29 8 36 -3 23 -43 93 -125 142 -169
l57 -50 97 37 c53 20 103 37 110 37 19 2 14 15 -22 55 -19 21 -79 91 -135 156
-55 65 -134 155 -175 200 -40 45 -116 128 -166 185 -51 56 -93 102 -94 101 0
0 -28 -13 -61 -28z"/>
<path d="M8046 4775 c-128 -47 -145 -57 -129 -77 69 -90 130 -161 145 -169 13
-7 35 -6 76 6 60 17 212 85 212 94 0 4 -34 45 -75 91 -41 47 -75 88 -75 93 0
14 -37 5 -154 -38z"/>
<path d="M7825 4698 c-112 -39 -235 -91 -235 -100 0 -10 16 -30 121 -146 l48
-52 76 21 c90 24 251 97 218 98 -16 1 -43 28 -95 96 -40 52 -80 95 -88 94 -8
0 -28 -5 -45 -11z"/>
<path d="M8445 4627 c-160 -59 -185 -69 -185 -78 0 -4 33 -46 73 -92 39 -47
80 -94 90 -106 12 -16 22 -20 30 -13 7 5 39 17 72 27 54 15 184 63 194 71 5 5
-26 42 -114 135 l-80 85 -80 -29z"/>
<path d="M7452 4561 c-116 -35 -172 -60 -172 -76 0 -15 108 -161 138 -189 20
-18 25 -18 84 -3 35 9 103 35 151 59 l89 44 -88 97 c-49 53 -93 97 -99 96 -5
0 -52 -13 -103 -28z"/>
<path d="M8135 4516 c-114 -42 -205 -83 -205 -92 0 -4 26 -35 58 -69 31 -35
73 -81 92 -105 l35 -42 90 35 c50 19 116 43 148 53 31 10 57 21 57 24 0 10
-178 232 -184 230 -1 -1 -41 -16 -91 -34z"/>
<path d="M8745 4419 c-44 -16 -116 -41 -159 -55 l-79 -27 44 -41 c24 -23 70
-70 103 -104 32 -34 65 -62 73 -62 19 0 293 103 292 110 0 3 -25 25 -55 50
-31 25 -72 68 -92 95 -19 28 -38 53 -41 56 -3 3 -42 -7 -86 -22z"/>
<path d="M7820 4394 c-158 -58 -200 -77 -200 -88 0 -13 166 -211 178 -211 16
1 235 76 264 91 17 9 27 19 22 23 -5 3 -16 18 -24 33 -18 32 -156 178 -167
177 -5 -1 -37 -12 -73 -25z"/>
<path d="M8343 4275 c-61 -24 -119 -47 -128 -52 -13 -8 -1 -26 71 -109 48 -54
92 -101 97 -103 20 -8 297 84 297 99 0 39 -169 211 -206 209 -10 0 -69 -20
-131 -44z"/>
<path d="M7465 4266 c-66 -23 -135 -50 -153 -59 l-33 -18 78 -90 c108 -127
114 -131 166 -114 66 21 240 85 246 90 2 3 -6 20 -19 38 -26 36 -161 198 -164
196 0 -1 -55 -20 -121 -43z"/>
<path d="M9195 4279 c-38 -15 -126 -48 -195 -74 -69 -25 -195 -74 -281 -107
l-156 -61 85 -104 c47 -58 91 -107 98 -110 7 -2 23 2 36 11 13 8 66 30 118 49
52 19 154 58 225 87 72 29 161 63 199 76 87 30 119 50 109 69 -8 13 -80 97
-139 161 l-29 31 -70 -28z"/>
<path d="M8119 4186 c-30 -12 -93 -35 -141 -51 -49 -17 -88 -33 -88 -37 0 -4
20 -30 45 -59 25 -28 62 -75 82 -105 20 -30 39 -54 42 -54 3 0 35 9 70 20 64
19 96 20 50 1 -136 -56 -209 -88 -237 -104 l-34 -20 55 -56 c30 -31 70 -77 89
-103 l35 -47 69 26 c38 13 107 36 154 51 47 14 87 27 89 29 4 3 -48 72 -134
176 -50 61 -61 87 -35 87 9 0 121 49 129 56 7 6 -52 77 -119 145 l-67 67 -54
-22z"/>
<path d="M7175 4154 c-147 -51 -205 -76 -205 -88 0 -17 88 -132 139 -180 l40
-39 98 33 c54 18 119 44 146 57 43 21 46 26 36 44 -14 28 -168 199 -177 198
-4 0 -38 -11 -77 -25z"/>
<path d="M7820 4080 c-14 -9 -92 -40 -212 -84 -27 -10 -48 -22 -48 -27 0 -5
24 -38 53 -73 28 -34 65 -84 80 -110 21 -37 31 -46 45 -41 9 5 53 21 97 38
114 42 195 79 195 90 0 27 -161 217 -184 217 -6 0 -18 -5 -26 -10z"/>
<path d="M9384 4056 c-33 -17 -98 -44 -145 -60 -46 -16 -88 -32 -93 -37 -9 -8
18 -43 117 -153 l54 -60 84 36 c46 19 113 45 147 58 35 13 66 29 69 37 3 8 -5
29 -19 48 -22 31 -147 167 -151 164 -1 -1 -29 -15 -63 -33z"/>
<path d="M8472 4009 c-29 -11 -50 -24 -48 -27 2 -4 -10 -7 -27 -8 -35 -1 -147
-48 -147 -61 0 -12 100 -142 146 -191 48 -50 54 -45 -91 -92 -86 -28 -150 -54
-164 -66 -2 -1 32 -39 75 -84 44 -45 85 -92 93 -104 l14 -23 51 22 c28 12 90
37 137 55 114 44 126 53 110 82 -6 13 -47 60 -90 106 l-78 83 31 13 c17 7 77
30 134 51 56 21 102 42 102 46 0 6 -190 220 -194 218 0 0 -25 -9 -54 -20z"/>
<path d="M7480 3950 c-8 -5 -68 -28 -132 -52 -65 -23 -118 -45 -118 -48 0 -3
29 -39 65 -80 36 -41 75 -90 88 -107 12 -18 29 -33 37 -33 20 0 184 61 238 89
l43 22 -22 37 c-33 55 -127 169 -145 176 -22 8 -37 7 -54 -4z"/>
<path d="M8975 3896 c-83 -33 -131 -58 -133 -68 -3 -16 152 -198 169 -198 23
0 269 103 269 112 0 16 -71 106 -127 160 l-48 46 -130 -52z"/>
<path d="M7170 3836 c-14 -7 -77 -32 -140 -56 -63 -24 -119 -47 -124 -51 -4
-4 10 -24 33 -44 23 -21 65 -68 93 -104 28 -36 54 -69 58 -73 6 -8 210 66 269
97 l32 16 -18 30 c-20 33 -148 180 -166 191 -7 3 -23 1 -37 -6z"/>
<path d="M8764 3810 c-17 -10 -78 -35 -135 -55 -57 -21 -110 -40 -116 -42 -7
-3 -13 -9 -13 -14 0 -12 150 -199 159 -199 11 0 278 98 301 110 20 11 19 13
-29 68 -27 31 -69 78 -93 104 l-43 47 -31 -19z"/>
<path d="M7728 3723 c-76 -31 -138 -61 -138 -68 0 -7 39 -57 86 -110 85 -95
87 -97 122 -90 65 12 298 113 265 115 -7 0 -13 9 -13 21 0 21 -157 190 -175
188 -6 0 -72 -26 -147 -56z"/>
<path d="M6825 3710 c-19 -8 -154 -57 -184 -66 -11 -4 -12 -7 -3 -16 7 -7 12
-16 12 -22 0 -6 -5 -5 -12 2 -19 19 -46 14 -176 -37 l-122 -48 21 -19 c12 -10
47 -53 79 -94 95 -125 81 -120 213 -75 61 21 132 47 156 57 24 10 46 16 48 14
9 -9 -93 -54 -212 -94 -126 -42 -235 -89 -235 -100 1 -10 144 -169 173 -192
l25 -20 114 44 c62 24 161 63 221 86 59 23 107 47 107 54 0 14 -84 122 -143
183 -22 24 -39 45 -36 47 4 4 108 47 182 75 l28 11 -21 30 c-11 16 -55 65 -96
110 -77 81 -94 89 -139 70z"/>
<path d="M7445 3616 c-147 -55 -175 -67 -175 -77 0 -9 155 -205 169 -214 15
-8 301 98 301 112 0 10 -164 211 -175 215 -5 2 -59 -14 -120 -36z"/>
<path d="M8015 3519 c-49 -22 -128 -53 -175 -68 -46 -16 -86 -33 -88 -39 -1
-5 35 -57 80 -114 l84 -104 44 22 c25 13 92 39 150 60 118 41 180 72 180 90 0
8 -181 198 -185 193 0 0 -40 -18 -90 -40z"/>
<path d="M7175 3512 c-22 -10 -93 -38 -157 -61 -65 -24 -118 -47 -118 -52 0
-5 4 -9 8 -9 4 0 46 -45 92 -100 66 -78 89 -100 105 -96 36 8 300 108 309 117
6 5 -11 30 -40 61 -27 29 -69 77 -93 106 -24 28 -49 52 -55 52 -6 0 -29 -9
-51 -18z"/>
<path d="M6210 3471 c-58 -21 -119 -45 -137 -54 -18 -10 -41 -17 -53 -17 -11
0 -20 -3 -20 -7 0 -3 31 -38 68 -77 37 -39 84 -91 104 -115 20 -23 41 -40 47
-37 30 19 143 55 133 43 -11 -13 -39 -25 -219 -94 -39 -16 -72 -32 -73 -36 0
-4 44 -55 99 -113 l100 -105 160 67 160 67 -29 36 c-16 20 -63 72 -104 115
-42 43 -75 80 -74 81 18 10 129 55 138 55 6 0 10 4 8 10 -6 19 -183 219 -193
219 -5 -1 -57 -18 -115 -38z"/>
<path d="M8485 3401 c-27 -10 -91 -37 -141 -60 -51 -22 -95 -41 -99 -41 -7 0
-406 -155 -540 -210 -153 -63 -337 -135 -485 -190 -85 -32 -236 -90 -335 -128
-564 -219 -728 -282 -736 -282 -11 0 -287 -109 -324 -128 -16 -8 -25 -17 -18
-19 6 -2 34 7 61 21 28 14 115 48 194 74 78 27 179 64 223 82 44 18 136 54
205 80 69 26 215 83 325 125 110 43 290 112 400 155 452 174 705 273 790 310
50 21 144 59 210 84 66 24 160 61 208 81 145 60 143 61 220 -31 88 -105 323
-403 422 -534 43 -58 137 -174 209 -259 72 -84 163 -195 202 -246 39 -51 94
-121 122 -155 49 -59 57 -80 28 -80 -15 0 -369 -139 -521 -205 -55 -24 -144
-60 -198 -80 -54 -21 -96 -39 -94 -41 6 -7 197 62 319 115 62 27 209 86 326
132 116 45 212 87 212 93 0 6 -17 32 -38 58 -20 26 -74 93 -119 150 -45 57
-129 157 -188 223 -59 66 -161 192 -228 280 -66 88 -157 205 -202 260 -45 55
-110 136 -145 180 -125 157 -171 205 -193 204 -12 0 -44 -9 -72 -18z"/>
<path d="M7510 3324 c-107 -42 -242 -92 -300 -114 -58 -21 -141 -52 -185 -70
-44 -18 -127 -49 -185 -70 -58 -21 -208 -79 -335 -129 -126 -50 -255 -101
-285 -113 -113 -43 -150 -61 -150 -71 0 -8 104 -138 155 -195 9 -10 48 1 196
58 101 38 218 84 259 101 41 17 109 44 151 59 42 16 175 68 295 116 121 47
264 103 319 124 372 140 435 165 435 175 0 13 -154 205 -164 204 -6 0 -99 -34
-206 -75z"/>
<path d="M5959 3048 c-24 -11 -90 -38 -146 -60 -57 -22 -103 -43 -103 -46 0
-4 43 -56 96 -115 108 -122 98 -119 204 -70 203 93 221 103 211 121 -17 32
-159 165 -189 177 -25 11 -36 10 -73 -7z"/>
<path d="M5980 2732 c-30 -14 -135 -55 -233 -92 -98 -37 -181 -70 -184 -74 -3
-3 20 -34 53 -69 32 -34 72 -81 88 -103 l30 -40 100 37 c200 73 376 147 376
158 0 4 -21 34 -48 67 -26 32 -58 74 -70 92 -36 49 -50 52 -112 24z"/>
<path d="M5510 2549 c-8 -5 -80 -34 -160 -65 -80 -30 -149 -60 -154 -64 -5 -6
-4 -15 4 -25 17 -20 1 -19 -21 1 -17 15 -29 12 -171 -41 -221 -83 -228 -86
-228 -100 0 -7 34 -59 77 -114 56 -76 80 -100 92 -96 9 4 52 20 96 37 44 16
118 46 165 67 97 43 107 59 67 119 -13 20 -32 51 -42 67 -17 28 -16 27 13 -5
17 -19 43 -56 59 -82 19 -33 33 -46 43 -41 8 3 53 20 100 37 150 56 250 101
250 112 0 23 -150 205 -168 203 -4 0 -14 -4 -22 -10z"/>
<path d="M4693 2239 c-35 -15 -109 -44 -165 -65 -57 -20 -104 -38 -106 -39 -3
-2 149 -218 164 -234 2 -2 25 4 51 14 26 10 58 19 73 21 35 4 199 86 200 101
0 6 -27 48 -61 94 -34 45 -68 94 -78 109 l-16 27 -62 -28z"/>
<path d="M7920 1371 c-116 -50 -439 -181 -765 -311 -93 -37 -188 -76 -210 -85
-65 -28 -93 -35 -99 -22 -2 7 -5 4 -5 -5 -1 -24 -10 -23 -42 8 -29 27 -36 11
-10 -20 8 -9 12 -18 10 -19 -2 -2 -20 -13 -39 -26 -49 -31 -15 -21 135 41 66
28 212 88 325 135 113 47 270 111 350 143 161 64 432 179 439 186 12 12 -32 0
-89 -25z"/>
</g>
</svg>
